# xmcd
# 
# Track frame offsets:
#     150
#     36020
#     60945
#     96662
#     134145
#     169987
# 
# Disc length: 2645
# 
# Revision: 2
# Processed by: cddbd v1.5.2PL0 Copyright (c) Steve Scherf et al.
# Submitted via: fre:ac v1.0.17
# 
DISCID=540a5306
DTITLE=Larry Carlton - Last Nite
DYEAR=1987
DGENRE=Fusion
TTITLE0=So what
TTITLE1=Don't give it up
TTITLE2=The B.P. blues
TTITLE3=All blues
TTITLE4=Last nite
TTITLE5=Emotions wound us so
EXTD=
EXTT0=
EXTT1=
EXTT2=
EXTT3=
EXTT4=
EXTT5=
PLAYORDER=
